<svg width="1440" height="1856" viewBox="0 0 1440 1856" fill="none" xmlns="http://www.w3.org/2000/svg">
<path d="M1312 720L720 1312L128 720L473.005 374.994C473.003 375.279 473 375.565 473 375.851C473 397.581 478.46 418.035 488.079 435.92L462 462L276 720L462 978L720 1236L1145.49 810.51C1195.48 760.523 1195.48 679.477 1145.49 629.49L720 204L660.07 263.929C642.185 254.309 621.73 248.85 600 248.85C599.715 248.85 599.429 248.853 599.145 248.854L720 128L1312 720Z" fill="black"/>
<path d="M720 797C764.183 797 800 832.817 800 877C800 898.995 791.122 918.916 776.756 933.378C787.678 927.786 800.054 924.632 813.167 924.632C857.353 924.632 893.174 960.452 893.174 1004.64C893.174 1048.83 857.354 1084.65 813.167 1084.65C779.082 1084.65 749.975 1063.33 738.448 1033.3C740.946 1072.26 759.825 1123.18 814.271 1149.57L720.043 1235L625.813 1149.57C678.985 1123.8 698.235 1074.63 701.434 1036.06C689.222 1064.63 660.866 1084.65 627.833 1084.65C583.646 1084.65 547.826 1048.83 547.826 1004.64C547.826 960.452 583.647 924.632 627.833 924.632C640.177 924.632 651.869 927.428 662.309 932.421C648.493 918.043 640 898.514 640 877C640 832.817 675.817 797 720 797Z" fill="black"/>
<path d="M885.047 293.047C906.442 311.387 920 338.61 920 369C920 424.228 875.228 469 820 469C789.096 469 761.467 454.98 743.124 432.955C749.655 476.268 768.986 522.967 807.333 551H633C671.492 522.861 690.824 475.914 697.282 432.464C678.942 454.772 651.133 469 620 469C564.772 469 520 424.228 520 369C520 338.61 533.557 311.387 554.952 293.047L720 128L885.047 293.047Z" fill="black"/>
<path d="M456 544L583 720L456 896L329 720L456 544Z" fill="#DC2628"/>
<path d="M1004.02 663.201C1019.1 649.707 1038.78 642.5 1059.01 643.06C1079.24 643.62 1098.49 651.904 1112.8 666.21C1127.1 680.507 1135.39 699.732 1135.97 719.944C1136.55 740.156 1129.37 759.824 1115.92 774.916L1004 887L892.101 774.916C878.629 759.816 871.448 740.131 872.033 719.903C872.618 699.675 880.925 680.438 895.247 666.142C909.569 651.846 928.821 643.576 949.049 643.029C969.278 642.482 988.948 649.7 1004.02 663.201Z" fill="#DC2628"/>
<path d="M352.195 1727.4C310.595 1727.4 280.595 1719.27 262.195 1703C243.795 1686.73 234.595 1660.07 234.595 1623V1511.4C234.595 1502.07 233.662 1494.87 231.795 1489.8C229.929 1484.73 226.329 1481.27 220.995 1479.4C215.662 1477.27 207.662 1476.2 196.995 1476.2V1459H331.795V1476.2C321.129 1476.2 312.995 1477.27 307.395 1479.4C302.062 1481.27 298.462 1484.87 296.595 1490.2C294.995 1495.53 294.195 1503.27 294.195 1513.4V1615.8C294.195 1633.13 296.195 1647.67 300.195 1659.4C304.195 1670.87 311.129 1679.53 320.995 1685.4C330.862 1691 344.595 1693.8 362.195 1693.8C387.262 1693.8 405.529 1688.2 416.995 1677C428.462 1665.53 434.195 1646.07 434.195 1618.6V1527.8C434.195 1513.67 433.395 1502.87 431.795 1495.4C430.195 1487.93 426.729 1482.87 421.395 1480.2C416.062 1477.53 407.795 1476.2 396.595 1476.2V1459H500.595V1476.2C489.129 1476.2 480.595 1477.53 474.995 1480.2C469.662 1482.87 466.195 1487.8 464.595 1495C463.262 1502.2 462.595 1512.73 462.595 1526.6V1616.2C462.595 1653.27 454.062 1681.13 436.995 1699.8C420.195 1718.2 391.929 1727.4 352.195 1727.4Z" fill="black"/>
<path d="M780.127 1724.6H734.127L580.927 1518.2H566.527L554.527 1498.6C549.993 1491.93 545.727 1487.13 541.727 1484.2C537.993 1481 533.993 1478.87 529.727 1477.8C525.46 1476.73 520.527 1476.2 514.927 1476.2V1459H610.927L751.327 1647.4H753.327V1527.8C753.327 1517.4 752.66 1508.33 751.327 1500.6C750.26 1492.87 747.06 1486.87 741.727 1482.6C736.66 1478.33 727.86 1476.2 715.327 1476.2V1459H816.127V1476.2C804.66 1476.2 796.393 1478.33 791.327 1482.6C786.26 1486.87 783.06 1492.87 781.727 1500.6C780.66 1508.33 780.127 1517.4 780.127 1527.8V1724.6ZM615.327 1721.8H514.927V1704.6C525.593 1704.6 533.593 1701 538.927 1693.8C544.26 1686.6 547.86 1677.27 549.727 1665.8C551.593 1654.07 552.527 1641.53 552.527 1628.2V1489.4H578.927V1657C578.927 1670.33 579.86 1680.47 581.727 1687.4C583.593 1694.07 587.193 1698.6 592.527 1701C597.86 1703.4 605.46 1704.6 615.327 1704.6V1721.8Z" fill="black"/>
<path d="M969.695 1721.8H837.295V1704.6C849.029 1704.6 857.429 1703.67 862.495 1701.8C867.829 1699.67 871.162 1695.8 872.495 1690.2C873.829 1684.33 874.495 1675.67 874.495 1664.2V1517.4C874.495 1506.73 873.695 1498.47 872.095 1492.6C870.762 1486.73 867.429 1482.6 862.095 1480.2C857.029 1477.53 848.762 1476.2 837.295 1476.2V1459H971.295V1476.2C959.562 1476.2 951.029 1477.53 945.695 1480.2C940.362 1482.6 937.029 1486.87 935.695 1493C934.629 1498.87 934.095 1507 934.095 1517.4V1664.2C934.095 1675.4 934.629 1683.93 935.695 1689.8C937.029 1695.67 940.229 1699.67 945.295 1701.8C950.362 1703.67 958.495 1704.6 969.695 1704.6V1721.8Z" fill="black"/>
<path d="M1185.4 1721.8H1048.2V1704.6C1059.94 1704.6 1068.47 1703.8 1073.8 1702.2C1079.4 1700.33 1083 1696.47 1084.6 1690.6C1086.47 1684.73 1087.4 1675.8 1087.4 1663.8V1481.4H1069.4C1054.74 1481.4 1043.67 1483.13 1036.2 1486.6C1029 1490.07 1023.8 1495.93 1020.6 1504.2C1017.4 1512.47 1014.34 1523.8 1011.4 1538.2H991.405L995.805 1459H1239.4L1243 1538.2H1223C1220.07 1523.8 1216.87 1512.47 1213.4 1504.2C1210.2 1495.93 1205 1490.07 1197.8 1486.6C1190.6 1483.13 1179.54 1481.4 1164.6 1481.4H1147V1663.8C1147 1675.8 1147.8 1684.73 1149.4 1690.6C1151.27 1696.47 1154.87 1700.33 1160.2 1702.2C1165.8 1703.8 1174.2 1704.6 1185.4 1704.6V1721.8Z" fill="black"/>
</svg>
