<svg width="1440" height="1440" viewBox="0 0 1440 1440" fill="none" xmlns="http://www.w3.org/2000/svg">
<path d="M1312 720L720 1312L128 720L473.005 374.994C473.003 375.279 473 375.565 473 375.851C473 397.581 478.46 418.035 488.079 435.92L462 462L276 720L462 978L720 1236L1145.49 810.51C1195.48 760.523 1195.48 679.477 1145.49 629.49L720 204L660.07 263.929C642.185 254.309 621.73 248.851 600 248.851C599.714 248.851 599.429 248.854 599.144 248.855L720 128L1312 720Z" fill="black"/>
<path d="M720 797C764.183 797 800 832.817 800 877C800 898.995 791.122 918.916 776.756 933.378C787.678 927.786 800.054 924.632 813.167 924.632C857.353 924.632 893.174 960.452 893.174 1004.64C893.174 1048.83 857.354 1084.65 813.167 1084.65C779.082 1084.65 749.975 1063.33 738.448 1033.3C740.946 1072.26 759.825 1123.18 814.271 1149.57L720.043 1235L625.813 1149.57C678.985 1123.8 698.235 1074.63 701.434 1036.06C689.222 1064.63 660.866 1084.65 627.833 1084.65C583.646 1084.65 547.826 1048.83 547.826 1004.64C547.826 960.452 583.647 924.632 627.833 924.632C640.177 924.632 651.869 927.428 662.309 932.421C648.493 918.043 640 898.514 640 877C640 832.817 675.817 797 720 797Z" fill="black"/>
<path d="M885.047 293.047C906.442 311.387 920 338.61 920 369C920 424.228 875.228 469 820 469C789.096 469 761.467 454.98 743.124 432.955C749.655 476.268 768.986 522.967 807.333 551H633C671.492 522.861 690.824 475.914 697.282 432.464C678.942 454.772 651.133 469 620 469C564.772 469 520 424.228 520 369C520 338.61 533.557 311.387 554.952 293.047L720 128L885.047 293.047Z" fill="black"/>
<path d="M456 544L583 720L456 896L329 720L456 544Z" fill="#DC2628"/>
<path d="M1004.02 663.201C1019.1 649.707 1038.78 642.5 1059.01 643.06C1079.24 643.62 1098.49 651.904 1112.8 666.21C1127.1 680.507 1135.39 699.732 1135.97 719.944C1136.55 740.156 1129.37 759.824 1115.92 774.916L1004 887L892.101 774.916C878.629 759.816 871.448 740.131 872.033 719.903C872.618 699.675 880.925 680.438 895.247 666.142C909.569 651.846 928.821 643.576 949.049 643.029C969.278 642.482 988.948 649.7 1004.02 663.201Z" fill="#DC2628"/>
</svg>
